v 0.0 -0.0049999998736893776 0.0
v 0.0007821723263557772 -0.00493844172399935 0.0
v 0.0007725424571379886 -0.00493844172399935 0.00012235870052224043
v 0.000743890075964836 -0.00493844172399935 0.00024170452937834387
v 0.0006969206157103443 -0.00493844172399935 0.0003550987869202581
v 0.0006327906925562325 -0.00493844172399935 0.00045974935323865953
v 0.0005530793527120002 -0.00493844172399935 0.0005530793527120001
v 0.0004597493532386596 -0.00493844172399935 0.0006327906925562325
v 0.00035509878692025816 -0.00493844172399935 0.0006969206157103442
v 0.00024170452937834392 -0.00493844172399935 0.0007438900759648359
v 0.00012235870052224046 -0.00493844172399935 0.0007725424571379885
v 4.789423800689882e-20 -0.00493844172399935 0.0007821723263557771
v -0.00012235870052224046 -0.00493844172399935 0.0007725424571379885
v -0.00024170452937834392 -0.00493844172399935 0.0007438900759648359
v -0.00035509878692025816 -0.00493844172399935 0.0006969206157103442
v -0.0004597493532386596 -0.00493844172399935 0.0006327906925562325
v -0.0005530793527120002 -0.00493844172399935 0.0005530793527120001
v -0.0006327906925562325 -0.00493844172399935 0.00045974935323865953
v -0.0006969206157103443 -0.00493844172399935 0.0003550987869202581
v -0.000743890075964836 -0.00493844172399935 0.00024170452937834387
v -0.0007725424571379886 -0.00493844172399935 0.00012235870052224043
v -0.0007821723263557772 -0.00493844172399935 9.578847601379763e-20
v -0.0007725424571379886 -0.00493844172399935 -0.00012235870052224043
v -0.000743890075964836 -0.00493844172399935 -0.00024170452937834387
v -0.0006969206157103443 -0.00493844172399935 -0.0003550987869202581
v -0.0006327906925562325 -0.00493844172399935 -0.00045974935323865953
v -0.0005530793527120002 -0.00493844172399935 -0.0005530793527120001
v -0.0004597493532386596 -0.00493844172399935 -0.0006327906925562325
v -0.00035509878692025816 -0.00493844172399935 -0.0006969206157103442
v -0.00024170452937834392 -0.00493844172399935 -0.0007438900759648359
v -0.00012235870052224046 -0.00493844172399935 -0.0007725424571379885
v -1.4368272460860803e-19 -0.00493844172399935 -0.0007821723263557771
v 0.00012235870052224046 -0.00493844172399935 -0.0007725424571379885
v 0.00024170452937834392 -0.00493844172399935 -0.0007438900759648359
v 0.00035509878692025816 -0.00493844172399935 -0.0006969206157103442
v 0.0004597493532386596 -0.00493844172399935 -0.0006327906925562325
v 0.0005530793527120002 -0.00493844172399935 -0.0005530793527120001
v 0.0006327906925562325 -0.00493844172399935 -0.00045974935323865953
v 0.0006969206157103443 -0.00493844172399935 -0.0003550987869202581
v 0.000743890075964836 -0.00493844172399935 -0.00024170452937834387
v 0.0007725424571379886 -0.00493844172399935 -0.00012235870052224043
v 0.0015450849142759771 -0.004755282472644896 0.0
v 0.0015260623546368985 -0.004755282472644896 0.00024170452937834387
v 0.0014694631205320475 -0.004755282472644896 0.0004774575112843558
v 0.001376680720837354 -0.004755282472644896 0.0007014538587751461
v 0.0012499999684223444 -0.004755282472644896 0.0009081781157904009
v 0.001092540045794892 -0.004755282472644896 0.0010925400457948919
v 0.000908178115790401 -0.004755282472644896 0.0012499999684223444
v 0.0007014538587751463 -0.004755282472644896 0.0013766807208373537
v 0.0004774575112843559 -0.004755282472644896 0.0014694631205320473
v 0.00024170452937834392 -0.004755282472644896 0.0015260623546368983
v 9.460916265903928e-20 -0.004755282472644896 0.001545084914275977
v -0.00024170452937834392 -0.004755282472644896 0.0015260623546368983
v -0.0004774575112843559 -0.004755282472644896 0.0014694631205320473
v -0.0007014538587751463 -0.004755282472644896 0.0013766807208373537
v -0.000908178115790401 -0.004755282472644896 0.0012499999684223444
v -0.001092540045794892 -0.004755282472644896 0.0010925400457948919
v -0.0012499999684223444 -0.004755282472644896 0.0009081781157904009
v -0.001376680720837354 -0.004755282472644896 0.0007014538587751461
v -0.0014694631205320475 -0.004755282472644896 0.0004774575112843558
v -0.0015260623546368985 -0.004755282472644896 0.00024170452937834387
v -0.0015450849142759771 -0.004755282472644896 1.8921832531807854e-19
v -0.0015260623546368985 -0.004755282472644896 -0.00024170452937834387
v -0.0014694631205320475 -0.004755282472644896 -0.0004774575112843558
v -0.001376680720837354 -0.004755282472644896 -0.0007014538587751461
v -0.0012499999684223444 -0.004755282472644896 -0.0009081781157904009
v -0.001092540045794892 -0.004755282472644896 -0.0010925400457948919
v -0.000908178115790401 -0.004755282472644896 -0.0012499999684223444
v -0.0007014538587751463 -0.004755282472644896 -0.0013766807208373537
v -0.0004774575112843559 -0.004755282472644896 -0.0014694631205320473
v -0.00024170452937834392 -0.004755282472644896 -0.0015260623546368983
v -2.838274985650294e-19 -0.004755282472644896 -0.001545084914275977
v 0.00024170452937834392 -0.004755282472644896 -0.0015260623546368983
v 0.0004774575112843559 -0.004755282472644896 -0.0014694631205320473
v 0.0007014538587751463 -0.004755282472644896 -0.0013766807208373537
v 0.000908178115790401 -0.004755282472644896 -0.0012499999684223444
v 0.001092540045794892 -0.004755282472644896 -0.0010925400457948919
v 0.0012499999684223444 -0.004755282472644896 -0.0009081781157904009
v 0.001376680720837354 -0.004755282472644896 -0.0007014538587751461
v 0.0014694631205320475 -0.004755282472644896 -0.0004774575112843558
v 0.0015260623546368985 -0.004755282472644896 -0.00024170452937834387
v 0.0022699525259691636 -0.004455032617558947 0.0
v 0.0022420054823026067 -0.004455032617558947 0.0003550987869202581
v 0.0021588530948768456 -0.004455032617558947 0.0007014538587751461
v 0.0020225425209277623 -0.004455032617558947 0.0010305368163126413
v 0.001836430121759728 -0.004455032617558947 0.0013342445990150932
v 0.0016050986838170307 -0.004455032617558947 0.0016050986838170305
v 0.0013342445990150934 -0.004455032617558947 0.0018364301217597277
v 0.0010305368163126415 -0.004455032617558947 0.002022542520927762
v 0.0007014538587751463 -0.004455032617558947 0.002158853094876845
v 0.00035509878692025816 -0.004455032617558947 0.0022420054823026063
v 1.3899450324310832e-19 -0.004455032617558947 0.002269952525969163
v -0.00035509878692025816 -0.004455032617558947 0.0022420054823026063
v -0.0007014538587751463 -0.004455032617558947 0.002158853094876845
v -0.0010305368163126415 -0.004455032617558947 0.002022542520927762
v -0.0013342445990150934 -0.004455032617558947 0.0018364301217597277
v -0.0016050986838170307 -0.004455032617558947 0.0016050986838170305
v -0.001836430121759728 -0.004455032617558947 0.0013342445990150932
v -0.0020225425209277623 -0.004455032617558947 0.0010305368163126413
v -0.0021588530948768456 -0.004455032617558947 0.0007014538587751461
v -0.0022420054823026067 -0.004455032617558947 0.0003550987869202581
v -0.0022699525259691636 -0.004455032617558947 2.7798900648621664e-19
v -0.0022420054823026067 -0.004455032617558947 -0.0003550987869202581
v -0.0021588530948768456 -0.004455032617558947 -0.0007014538587751461
v -0.0020225425209277623 -0.004455032617558947 -0.0010305368163126413
v -0.001836430121759728 -0.004455032617558947 -0.0013342445990150932
v -0.0016050986838170307 -0.004455032617558947 -0.0016050986838170305
v -0.0013342445990150934 -0.004455032617558947 -0.0018364301217597277
v -0.0010305368163126415 -0.004455032617558947 -0.002022542520927762
v -0.0007014538587751463 -0.004455032617558947 -0.002158853094876845
v -0.00035509878692025816 -0.004455032617558947 -0.0022420054823026063
v -4.16983509729325e-19 -0.004455032617558947 -0.002269952525969163
v 0.00035509878692025816 -0.004455032617558947 -0.0022420054823026063
v 0.0007014538587751463 -0.004455032617558947 -0.002158853094876845
v 0.0010305368163126415 -0.004455032617558947 -0.002022542520927762
v 0.0013342445990150934 -0.004455032617558947 -0.0018364301217597277
v 0.0016050986838170307 -0.004455032617558947 -0.0016050986838170305
v 0.001836430121759728 -0.004455032617558947 -0.0013342445990150932
v 0.0020225425209277623 -0.004455032617558947 -0.0010305368163126413
v 0.0021588530948768456 -0.004455032617558947 -0.0007014538587751461
v 0.0022420054823026067 -0.004455032617558947 -0.0003550987869202581
v 0.002938926241064095 -0.004045085041855524 0.0
v 0.0029027430754742524 -0.004045085041855524 0.00045974935323865953
v 0.0027950848826983218 -0.004045085041855524 0.0009081781157904009
v 0.0026186024957992196 -0.004045085041855524 0.0013342445990150932
v 0.0023776412363224484 -0.004045085041855524 0.0017274573843392709
v 0.0020781346749799293 -0.004045085041855524 0.002078134674979929
v 0.001727457384339271 -0.004045085041855524 0.002377641236322448
v 0.0013342445990150934 -0.004045085041855524 0.0026186024957992196
v 0.000908178115790401 -0.004045085041855524 0.0027950848826983213
v 0.0004597493532386596 -0.004045085041855524 0.002902743075474252
v 1.7995733317487338e-19 -0.004045085041855524 0.0029389262410640946
v -0.0004597493532386596 -0.004045085041855524 0.002902743075474252
v -0.000908178115790401 -0.004045085041855524 0.0027950848826983213
v -0.0013342445990150934 -0.004045085041855524 0.0026186024957992196
v -0.001727457384339271 -0.004045085041855524 0.002377641236322448
v -0.0020781346749799293 -0.004045085041855524 0.002078134674979929
v -0.0023776412363224484 -0.004045085041855524 0.0017274573843392709
v -0.0026186024957992196 -0.004045085041855524 0.0013342445990150932
v -0.0027950848826983218 -0.004045085041855524 0.0009081781157904009
v -0.0029027430754742524 -0.004045085041855524 0.00045974935323865953
v -0.002938926241064095 -0.004045085041855524 3.599146663497467e-19
v -0.0029027430754742524 -0.004045085041855524 -0.00045974935323865953
v -0.0027950848826983218 -0.004045085041855524 -0.0009081781157904009
v -0.0026186024957992196 -0.004045085041855524 -0.0013342445990150932
v -0.0023776412363224484 -0.004045085041855524 -0.0017274573843392709
v -0.0020781346749799293 -0.004045085041855524 -0.002078134674979929
v -0.001727457384339271 -0.004045085041855524 -0.002377641236322448
v -0.0013342445990150934 -0.004045085041855524 -0.0026186024957992196
v -0.000908178115790401 -0.004045085041855524 -0.0027950848826983213
v -0.0004597493532386596 -0.004045085041855524 -0.002902743075474252
v -5.39871978348797e-19 -0.004045085041855524 -0.0029389262410640946
v 0.0004597493532386596 -0.004045085041855524 -0.002902743075474252
v 0.000908178115790401 -0.004045085041855524 -0.0027950848826983213
v 0.0013342445990150934 -0.004045085041855524 -0.0026186024957992196
v 0.001727457384339271 -0.004045085041855524 -0.002377641236322448
v 0.0020781346749799293 -0.004045085041855524 -0.002078134674979929
v 0.0023776412363224484 -0.004045085041855524 -0.0017274573843392709
v 0.0026186024957992196 -0.004045085041855524 -0.0013342445990150932
v 0.0027950848826983218 -0.004045085041855524 -0.0009081781157904009
v 0.0029027430754742524 -0.004045085041855524 -0.00045974935323865953
v 0.0035355338157141993 -0.003535533815714199 0.0
v 0.003492005450724951 -0.003535533815714199 0.0005530793527120001
v 0.003362492285661768 -0.003535533815714199 0.0010925400457948919
v 0.0031501837888278663 -0.003535533815714199 0.0016050986838170305
v 0.0028603068582845627 -0.003535533815714199 0.002078134674979929
v 0.0024999999368446888 -0.003535533815714199 0.0024999999368446888
v 0.0020781346749799293 -0.003535533815714199 0.0028603068582845623
v 0.0016050986838170307 -0.003535533815714199 0.003150183788827866
v 0.001092540045794892 -0.003535533815714199 0.0033624922856617676
v 0.0005530793527120002 -0.003535533815714199 0.0034920054507249507
v 2.1648901623413616e-19 -0.003535533815714199 0.003535533815714199
v -0.0005530793527120002 -0.003535533815714199 0.0034920054507249507
v -0.001092540045794892 -0.003535533815714199 0.0033624922856617676
v -0.0016050986838170307 -0.003535533815714199 0.003150183788827866
v -0.0020781346749799293 -0.003535533815714199 0.0028603068582845623
v -0.0024999999368446888 -0.003535533815714199 0.0024999999368446888
v -0.0028603068582845627 -0.003535533815714199 0.002078134674979929
v -0.0031501837888278663 -0.003535533815714199 0.0016050986838170305
v -0.003362492285661768 -0.003535533815714199 0.0010925400457948919
v -0.003492005450724951 -0.003535533815714199 0.0005530793527120001
v -0.0035355338157141993 -0.003535533815714199 4.3297803246827223e-19
v -0.003492005450724951 -0.003535533815714199 -0.0005530793527120001
v -0.003362492285661768 -0.003535533815714199 -0.0010925400457948919
v -0.0031501837888278663 -0.003535533815714199 -0.0016050986838170305
v -0.0028603068582845627 -0.003535533815714199 -0.002078134674979929
v -0.0024999999368446888 -0.003535533815714199 -0.0024999999368446888
v -0.0020781346749799293 -0.003535533815714199 -0.0028603068582845623
v -0.0016050986838170307 -0.003535533815714199 -0.003150183788827866
v -0.001092540045794892 -0.003535533815714199 -0.0033624922856617676
v -0.0005530793527120002 -0.003535533815714199 -0.0034920054507249507
v -6.494670275265853e-19 -0.003535533815714199 -0.003535533815714199
v 0.0005530793527120002 -0.003535533815714199 -0.0034920054507249507
v 0.001092540045794892 -0.003535533815714199 -0.0033624922856617676
v 0.0016050986838170307 -0.003535533815714199 -0.003150183788827866
v 0.0020781346749799293 -0.003535533815714199 -0.0028603068582845623
v 0.0024999999368446888 -0.003535533815714199 -0.0024999999368446888
v 0.0028603068582845627 -0.003535533815714199 -0.002078134674979929
v 0.0031501837888278663 -0.003535533815714199 -0.0016050986838170305
v 0.003362492285661768 -0.003535533815714199 -0.0010925400457948919
v 0.003492005450724951 -0.003535533815714199 -0.0005530793527120001
v 0.004045085041855525 -0.0029389262410640946 0.0
v 0.003995283025901715 -0.0029389262410640946 0.0006327906925562325
v 0.0038471041661196376 -0.0029389262410640946 0.0012499999684223444
v 0.003604196838881969 -0.0029389262410640946 0.0018364301217597277
v 0.0032725424893501067 -0.0029389262410640946 0.002377641236322448
v 0.0028603068582845627 -0.0029389262410640946 0.0028603068582845623
v 0.0023776412363224484 -0.0029389262410640946 0.0032725424893501063
v 0.001836430121759728 -0.0029389262410640946 0.0036041968388819687
v 0.0012499999684223444 -0.0029389262410640946 0.0038471041661196368
v 0.0006327906925562325 -0.0029389262410640946 0.0039952830259017144
v 2.476900034536371e-19 -0.0029389262410640946 0.004045085041855524
v -0.0006327906925562325 -0.0029389262410640946 0.0039952830259017144
v -0.0012499999684223444 -0.0029389262410640946 0.0038471041661196368
v -0.001836430121759728 -0.0029389262410640946 0.0036041968388819687
v -0.0023776412363224484 -0.0029389262410640946 0.0032725424893501063
v -0.0028603068582845627 -0.0029389262410640946 0.0028603068582845623
v -0.0032725424893501067 -0.0029389262410640946 0.002377641236322448
v -0.003604196838881969 -0.0029389262410640946 0.0018364301217597277
v -0.0038471041661196376 -0.0029389262410640946 0.0012499999684223444
v -0.003995283025901715 -0.0029389262410640946 0.0006327906925562325
v -0.004045085041855525 -0.0029389262410640946 4.953800069072741e-19
v -0.003995283025901715 -0.0029389262410640946 -0.0006327906925562325
v -0.0038471041661196376 -0.0029389262410640946 -0.0012499999684223444
v -0.003604196838881969 -0.0029389262410640946 -0.0018364301217597277
v -0.0032725424893501067 -0.0029389262410640946 -0.002377641236322448
v -0.0028603068582845627 -0.0029389262410640946 -0.0028603068582845623
v -0.0023776412363224484 -0.0029389262410640946 -0.0032725424893501063
v -0.001836430121759728 -0.0029389262410640946 -0.0036041968388819687
v -0.0012499999684223444 -0.0029389262410640946 -0.0038471041661196368
v -0.0006327906925562325 -0.0029389262410640946 -0.0039952830259017144
v -7.430700527125576e-19 -0.0029389262410640946 -0.004045085041855524
v 0.0006327906925562325 -0.0029389262410640946 -0.0039952830259017144
v 0.0012499999684223444 -0.0029389262410640946 -0.0038471041661196368
v 0.001836430121759728 -0.0029389262410640946 -0.0036041968388819687
v 0.0023776412363224484 -0.0029389262410640946 -0.0032725424893501063
v 0.0028603068582845627 -0.0029389262410640946 -0.0028603068582845623
v 0.0032725424893501067 -0.0029389262410640946 -0.002377641236322448
v 0.003604196838881969 -0.0029389262410640946 -0.0018364301217597277
v 0.0038471041661196376 -0.0029389262410640946 -0.0012499999684223444
v 0.003995283025901715 -0.0029389262410640946 -0.0006327906925562325
v 0.004455032617558948 -0.002269952525969163 0.0
v 0.004400183757250211 -0.002269952525969163 0.0006969206157103442
v 0.0042369875791219164 -0.002269952525969163 0.0013766807208373537
v 0.003969462866641878 -0.002269952525969163 0.002022542520927762
v 0.003604196838881969 -0.002269952525969163 0.0026186024957992196
v 0.0031501837888278663 -0.002269952525969163 0.003150183788827866
v 0.0026186024957992196 -0.002269952525969163 0.0036041968388819687
v 0.0020225425209277623 -0.002269952525969163 0.003969462866641877
v 0.001376680720837354 -0.002269952525969163 0.004236987579121916
v 0.0006969206157103443 -0.002269952525969163 0.00440018375725021
v 2.7279205714544755e-19 -0.002269952525969163 0.004455032617558947
v -0.0006969206157103443 -0.002269952525969163 0.00440018375725021
v -0.001376680720837354 -0.002269952525969163 0.004236987579121916
v -0.0020225425209277623 -0.002269952525969163 0.003969462866641877
v -0.0026186024957992196 -0.002269952525969163 0.0036041968388819687
v -0.0031501837888278663 -0.002269952525969163 0.003150183788827866
v -0.003604196838881969 -0.002269952525969163 0.0026186024957992196
v -0.003969462866641878 -0.002269952525969163 0.002022542520927762
v -0.0042369875791219164 -0.002269952525969163 0.0013766807208373537
v -0.004400183757250211 -0.002269952525969163 0.0006969206157103442
v -0.004455032617558948 -0.002269952525969163 5.455841142908951e-19
v -0.004400183757250211 -0.002269952525969163 -0.0006969206157103442
v -0.0042369875791219164 -0.002269952525969163 -0.0013766807208373537
v -0.003969462866641878 -0.002269952525969163 -0.002022542520927762
v -0.003604196838881969 -0.002269952525969163 -0.0026186024957992196
v -0.0031501837888278663 -0.002269952525969163 -0.003150183788827866
v -0.0026186024957992196 -0.002269952525969163 -0.0036041968388819687
v -0.0020225425209277623 -0.002269952525969163 -0.003969462866641877
v -0.001376680720837354 -0.002269952525969163 -0.004236987579121916
v -0.0006969206157103443 -0.002269952525969163 -0.00440018375725021
v -8.183761926121658e-19 -0.002269952525969163 -0.004455032617558947
v 0.0006969206157103443 -0.002269952525969163 -0.00440018375725021
v 0.001376680720837354 -0.002269952525969163 -0.004236987579121916
v 0.0020225425209277623 -0.002269952525969163 -0.003969462866641877
v 0.0026186024957992196 -0.002269952525969163 -0.0036041968388819687
v 0.0031501837888278663 -0.002269952525969163 -0.003150183788827866
v 0.003604196838881969 -0.002269952525969163 -0.0026186024957992196
v 0.003969462866641878 -0.002269952525969163 -0.002022542520927762
v 0.0042369875791219164 -0.002269952525969163 -0.0013766807208373537
v 0.004400183757250211 -0.002269952525969163 -0.0006969206157103442
v 0.004755282472644897 -0.001545084914275977 0.0
v 0.004696737170779149 -0.001545084914275977 0.0007438900759648359
v 0.004522542457772451 -0.001545084914275977 0.0014694631205320473
v 0.0042369875791219164 -0.001545084914275977 0.002158853094876845
v 0.0038471041661196376 -0.001545084914275977 0.0027950848826983213
v 0.003362492285661768 -0.001545084914275977 0.0033624922856617676
v 0.0027950848826983218 -0.001545084914275977 0.0038471041661196368
v 0.0021588530948768456 -0.001545084914275977 0.004236987579121916
v 0.0014694631205320475 -0.001545084914275977 0.00452254245777245
v 0.000743890075964836 -0.001545084914275977 0.004696737170779148
v 2.9117707620774693e-19 -0.001545084914275977 0.004755282472644896
v -0.000743890075964836 -0.001545084914275977 0.004696737170779148
v -0.0014694631205320475 -0.001545084914275977 0.00452254245777245
v -0.0021588530948768456 -0.001545084914275977 0.004236987579121916
v -0.0027950848826983218 -0.001545084914275977 0.0038471041661196368
v -0.003362492285661768 -0.001545084914275977 0.0033624922856617676
v -0.0038471041661196376 -0.001545084914275977 0.0027950848826983213
v -0.0042369875791219164 -0.001545084914275977 0.002158853094876845
v -0.004522542457772451 -0.001545084914275977 0.0014694631205320473
v -0.004696737170779149 -0.001545084914275977 0.0007438900759648359
v -0.004755282472644897 -0.001545084914275977 5.823541524154939e-19
v -0.004696737170779149 -0.001545084914275977 -0.0007438900759648359
v -0.004522542457772451 -0.001545084914275977 -0.0014694631205320473
v -0.0042369875791219164 -0.001545084914275977 -0.002158853094876845
v -0.0038471041661196376 -0.001545084914275977 -0.0027950848826983213
v -0.003362492285661768 -0.001545084914275977 -0.0033624922856617676
v -0.0027950848826983218 -0.001545084914275977 -0.0038471041661196368
v -0.0021588530948768456 -0.001545084914275977 -0.004236987579121916
v -0.0014694631205320475 -0.001545084914275977 -0.00452254245777245
v -0.000743890075964836 -0.001545084914275977 -0.004696737170779148
v -8.73531249799064e-19 -0.001545084914275977 -0.004755282472644896
v 0.000743890075964836 -0.001545084914275977 -0.004696737170779148
v 0.0014694631205320475 -0.001545084914275977 -0.00452254245777245
v 0.0021588530948768456 -0.001545084914275977 -0.004236987579121916
v 0.0027950848826983218 -0.001545084914275977 -0.0038471041661196368
v 0.003362492285661768 -0.001545084914275977 -0.0033624922856617676
v 0.0038471041661196376 -0.001545084914275977 -0.0027950848826983213
v 0.0042369875791219164 -0.001545084914275977 -0.002158853094876845
v 0.004522542457772451 -0.001545084914275977 -0.0014694631205320473
v 0.004696737170779149 -0.001545084914275977 -0.0007438900759648359
v 0.00493844172399935 -0.0007821723263557771 0.0
v 0.004877641173167137 -0.0007821723263557771 0.0007725424571379885
v 0.004696737170779149 -0.0007821723263557771 0.0015260623546368983
v 0.004400183757250211 -0.0007821723263557771 0.0022420054823026063
v 0.003995283025901715 -0.0007821723263557771 0.002902743075474252
v 0.003492005450724951 -0.0007821723263557771 0.0034920054507249507
v 0.0029027430754742524 -0.0007821723263557771 0.0039952830259017144
v 0.0022420054823026067 -0.0007821723263557771 0.00440018375725021
v 0.0015260623546368985 -0.0007821723263557771 0.004696737170779148
v 0.0007725424571379886 -0.0007821723263557771 0.004877641173167137
v 3.0239234271748816e-19 -0.0007821723263557771 0.00493844172399935
v -0.0007725424571379886 -0.0007821723263557771 0.004877641173167137
v -0.0015260623546368985 -0.0007821723263557771 0.004696737170779148
v -0.0022420054823026067 -0.0007821723263557771 0.00440018375725021
v -0.0029027430754742524 -0.0007821723263557771 0.0039952830259017144
v -0.003492005450724951 -0.0007821723263557771 0.0034920054507249507
v -0.003995283025901715 -0.0007821723263557771 0.002902743075474252
v -0.004400183757250211 -0.0007821723263557771 0.0022420054823026063
v -0.004696737170779149 -0.0007821723263557771 0.0015260623546368983
v -0.004877641173167137 -0.0007821723263557771 0.0007725424571379885
v -0.00493844172399935 -0.0007821723263557771 6.047846854349762e-19
v -0.004877641173167137 -0.0007821723263557771 -0.0007725424571379885
v -0.004696737170779149 -0.0007821723263557771 -0.0015260623546368983
v -0.004400183757250211 -0.0007821723263557771 -0.0022420054823026063
v -0.003995283025901715 -0.0007821723263557771 -0.002902743075474252
v -0.003492005450724951 -0.0007821723263557771 -0.0034920054507249507
v -0.0029027430754742524 -0.0007821723263557771 -0.0039952830259017144
v -0.0022420054823026067 -0.0007821723263557771 -0.00440018375725021
v -0.0015260623546368985 -0.0007821723263557771 -0.004696737170779148
v -0.0007725424571379886 -0.0007821723263557771 -0.004877641173167137
v -9.071770069766413e-19 -0.0007821723263557771 -0.00493844172399935
v 0.0007725424571379886 -0.0007821723263557771 -0.004877641173167137
v 0.0015260623546368985 -0.0007821723263557771 -0.004696737170779148
v 0.0022420054823026067 -0.0007821723263557771 -0.00440018375725021
v 0.0029027430754742524 -0.0007821723263557771 -0.0039952830259017144
v 0.003492005450724951 -0.0007821723263557771 -0.0034920054507249507
v 0.003995283025901715 -0.0007821723263557771 -0.002902743075474252
v 0.004400183757250211 -0.0007821723263557771 -0.0022420054823026063
v 0.004696737170779149 -0.0007821723263557771 -0.0015260623546368983
v 0.004877641173167137 -0.0007821723263557771 -0.0007725424571379885
v 0.0049999998736893776 0.0 0.0
v 0.00493844172399935 0.0 0.0007821723263557771
v 0.004755282472644897 0.0 0.001545084914275977
v 0.004455032617558948 0.0 0.002269952525969163
v 0.004045085041855525 0.0 0.0029389262410640946
v 0.0035355338157141993 0.0 0.003535533815714199
v 0.002938926241064095 0.0 0.004045085041855524
v 0.0022699525259691636 0.0 0.004455032617558947
v 0.0015450849142759771 0.0 0.004755282472644896
v 0.0007821723263557772 0.0 0.00493844172399935
v 3.0616168158919565e-19 0.0 0.0049999998736893776
v -0.0007821723263557772 0.0 0.00493844172399935
v -0.0015450849142759771 0.0 0.004755282472644896
v -0.0022699525259691636 0.0 0.004455032617558947
v -0.002938926241064095 0.0 0.004045085041855524
v -0.0035355338157141993 0.0 0.003535533815714199
v -0.004045085041855525 0.0 0.0029389262410640946
v -0.004455032617558948 0.0 0.002269952525969163
v -0.004755282472644897 0.0 0.001545084914275977
v -0.00493844172399935 0.0 0.0007821723263557771
v -0.0049999998736893776 0.0 6.123233631783912e-19
v -0.00493844172399935 0.0 -0.0007821723263557771
v -0.004755282472644897 0.0 -0.001545084914275977
v -0.004455032617558948 0.0 -0.002269952525969163
v -0.004045085041855525 0.0 -0.0029389262410640946
v -0.0035355338157141993 0.0 -0.003535533815714199
v -0.002938926241064095 0.0 -0.004045085041855524
v -0.0022699525259691636 0.0 -0.004455032617558947
v -0.0015450849142759771 0.0 -0.004755282472644896
v -0.0007821723263557772 0.0 -0.00493844172399935
v -9.1848506594341e-19 0.0 -0.0049999998736893776
v 0.0007821723263557772 0.0 -0.00493844172399935
v 0.0015450849142759771 0.0 -0.004755282472644896
v 0.0022699525259691636 0.0 -0.004455032617558947
v 0.002938926241064095 0.0 -0.004045085041855524
v 0.0035355338157141993 0.0 -0.003535533815714199
v 0.004045085041855525 0.0 -0.0029389262410640946
v 0.004455032617558948 0.0 -0.002269952525969163
v 0.004755282472644897 0.0 -0.001545084914275977
v 0.00493844172399935 0.0 -0.0007821723263557771
v 0.00493844172399935 0.0007821723263557771 0.0
v 0.004877641173167137 0.0007821723263557771 0.0007725424571379885
v 0.004696737170779149 0.0007821723263557771 0.0015260623546368983
v 0.004400183757250211 0.0007821723263557771 0.0022420054823026063
v 0.003995283025901715 0.0007821723263557771 0.002902743075474252
v 0.003492005450724951 0.0007821723263557771 0.0034920054507249507
v 0.0029027430754742524 0.0007821723263557771 0.0039952830259017144
v 0.0022420054823026067 0.0007821723263557771 0.00440018375725021
v 0.0015260623546368985 0.0007821723263557771 0.004696737170779148
v 0.0007725424571379886 0.0007821723263557771 0.004877641173167137
v 3.0239234271748816e-19 0.0007821723263557771 0.00493844172399935
v -0.0007725424571379886 0.0007821723263557771 0.004877641173167137
v -0.0015260623546368985 0.0007821723263557771 0.004696737170779148
v -0.0022420054823026067 0.0007821723263557771 0.00440018375725021
v -0.0029027430754742524 0.0007821723263557771 0.0039952830259017144
v -0.003492005450724951 0.0007821723263557771 0.0034920054507249507
v -0.003995283025901715 0.0007821723263557771 0.002902743075474252
v -0.004400183757250211 0.0007821723263557771 0.0022420054823026063
v -0.004696737170779149 0.0007821723263557771 0.0015260623546368983
v -0.004877641173167137 0.0007821723263557771 0.0007725424571379885
v -0.00493844172399935 0.0007821723263557771 6.047846854349762e-19
v -0.004877641173167137 0.0007821723263557771 -0.0007725424571379885
v -0.004696737170779149 0.0007821723263557771 -0.0015260623546368983
v -0.004400183757250211 0.0007821723263557771 -0.0022420054823026063
v -0.003995283025901715 0.0007821723263557771 -0.002902743075474252
v -0.003492005450724951 0.0007821723263557771 -0.0034920054507249507
v -0.0029027430754742524 0.0007821723263557771 -0.0039952830259017144
v -0.0022420054823026067 0.0007821723263557771 -0.00440018375725021
v -0.0015260623546368985 0.0007821723263557771 -0.004696737170779148
v -0.0007725424571379886 0.0007821723263557771 -0.004877641173167137
v -9.071770069766413e-19 0.0007821723263557771 -0.00493844172399935
v 0.0007725424571379886 0.0007821723263557771 -0.004877641173167137
v 0.0015260623546368985 0.0007821723263557771 -0.004696737170779148
v 0.0022420054823026067 0.0007821723263557771 -0.00440018375725021
v 0.0029027430754742524 0.0007821723263557771 -0.0039952830259017144
v 0.003492005450724951 0.0007821723263557771 -0.0034920054507249507
v 0.003995283025901715 0.0007821723263557771 -0.002902743075474252
v 0.004400183757250211 0.0007821723263557771 -0.0022420054823026063
v 0.004696737170779149 0.0007821723263557771 -0.0015260623546368983
v 0.004877641173167137 0.0007821723263557771 -0.0007725424571379885
v 0.004755282472644897 0.001545084914275977 0.0
v 0.004696737170779149 0.001545084914275977 0.0007438900759648359
v 0.004522542457772451 0.001545084914275977 0.0014694631205320473
v 0.0042369875791219164 0.001545084914275977 0.002158853094876845
v 0.0038471041661196376 0.001545084914275977 0.0027950848826983213
v 0.003362492285661768 0.001545084914275977 0.0033624922856617676
v 0.0027950848826983218 0.001545084914275977 0.0038471041661196368
v 0.0021588530948768456 0.001545084914275977 0.004236987579121916
v 0.0014694631205320475 0.001545084914275977 0.00452254245777245
v 0.000743890075964836 0.001545084914275977 0.004696737170779148
v 2.9117707620774693e-19 0.001545084914275977 0.004755282472644896
v -0.000743890075964836 0.001545084914275977 0.004696737170779148
v -0.0014694631205320475 0.001545084914275977 0.00452254245777245
v -0.0021588530948768456 0.001545084914275977 0.004236987579121916
v -0.0027950848826983218 0.001545084914275977 0.0038471041661196368
v -0.003362492285661768 0.001545084914275977 0.0033624922856617676
v -0.0038471041661196376 0.001545084914275977 0.0027950848826983213
v -0.0042369875791219164 0.001545084914275977 0.002158853094876845
v -0.004522542457772451 0.001545084914275977 0.0014694631205320473
v -0.004696737170779149 0.001545084914275977 0.0007438900759648359
v -0.004755282472644897 0.001545084914275977 5.823541524154939e-19
v -0.004696737170779149 0.001545084914275977 -0.0007438900759648359
v -0.004522542457772451 0.001545084914275977 -0.0014694631205320473
v -0.0042369875791219164 0.001545084914275977 -0.002158853094876845
v -0.0038471041661196376 0.001545084914275977 -0.0027950848826983213
v -0.003362492285661768 0.001545084914275977 -0.0033624922856617676
v -0.0027950848826983218 0.001545084914275977 -0.0038471041661196368
v -0.0021588530948768456 0.001545084914275977 -0.004236987579121916
v -0.0014694631205320475 0.001545084914275977 -0.00452254245777245
v -0.000743890075964836 0.001545084914275977 -0.004696737170779148
v -8.73531249799064e-19 0.001545084914275977 -0.004755282472644896
v 0.000743890075964836 0.001545084914275977 -0.004696737170779148
v 0.0014694631205320475 0.001545084914275977 -0.00452254245777245
v 0.0021588530948768456 0.001545084914275977 -0.004236987579121916
v 0.0027950848826983218 0.001545084914275977 -0.0038471041661196368
v 0.003362492285661768 0.001545084914275977 -0.0033624922856617676
v 0.0038471041661196376 0.001545084914275977 -0.0027950848826983213
v 0.0042369875791219164 0.001545084914275977 -0.002158853094876845
v 0.004522542457772451 0.001545084914275977 -0.0014694631205320473
v 0.004696737170779149 0.001545084914275977 -0.0007438900759648359
v 0.004455032617558948 0.002269952525969163 0.0
v 0.004400183757250211 0.002269952525969163 0.0006969206157103442
v 0.0042369875791219164 0.002269952525969163 0.0013766807208373537
v 0.003969462866641878 0.002269952525969163 0.002022542520927762
v 0.003604196838881969 0.002269952525969163 0.0026186024957992196
v 0.0031501837888278663 0.002269952525969163 0.003150183788827866
v 0.0026186024957992196 0.002269952525969163 0.0036041968388819687
v 0.0020225425209277623 0.002269952525969163 0.003969462866641877
v 0.001376680720837354 0.002269952525969163 0.004236987579121916
v 0.0006969206157103443 0.002269952525969163 0.00440018375725021
v 2.7279205714544755e-19 0.002269952525969163 0.004455032617558947
v -0.0006969206157103443 0.002269952525969163 0.00440018375725021
v -0.001376680720837354 0.002269952525969163 0.004236987579121916
v -0.0020225425209277623 0.002269952525969163 0.003969462866641877
v -0.0026186024957992196 0.002269952525969163 0.0036041968388819687
v -0.0031501837888278663 0.002269952525969163 0.003150183788827866
v -0.003604196838881969 0.002269952525969163 0.0026186024957992196
v -0.003969462866641878 0.002269952525969163 0.002022542520927762
v -0.0042369875791219164 0.002269952525969163 0.0013766807208373537
v -0.004400183757250211 0.002269952525969163 0.0006969206157103442
v -0.004455032617558948 0.002269952525969163 5.455841142908951e-19
v -0.004400183757250211 0.002269952525969163 -0.0006969206157103442
v -0.0042369875791219164 0.002269952525969163 -0.0013766807208373537
v -0.003969462866641878 0.002269952525969163 -0.002022542520927762
v -0.003604196838881969 0.002269952525969163 -0.0026186024957992196
v -0.0031501837888278663 0.002269952525969163 -0.003150183788827866
v -0.0026186024957992196 0.002269952525969163 -0.0036041968388819687
v -0.0020225425209277623 0.002269952525969163 -0.003969462866641877
v -0.001376680720837354 0.002269952525969163 -0.004236987579121916
v -0.0006969206157103443 0.002269952525969163 -0.00440018375725021
v -8.183761926121658e-19 0.002269952525969163 -0.004455032617558947
v 0.0006969206157103443 0.002269952525969163 -0.00440018375725021
v 0.001376680720837354 0.002269952525969163 -0.004236987579121916
v 0.0020225425209277623 0.002269952525969163 -0.003969462866641877
v 0.0026186024957992196 0.002269952525969163 -0.0036041968388819687
v 0.0031501837888278663 0.002269952525969163 -0.003150183788827866
v 0.003604196838881969 0.002269952525969163 -0.0026186024957992196
v 0.003969462866641878 0.002269952525969163 -0.002022542520927762
v 0.0042369875791219164 0.002269952525969163 -0.0013766807208373537
v 0.004400183757250211 0.002269952525969163 -0.0006969206157103442
v 0.004045085041855525 0.0029389262410640946 0.0
v 0.003995283025901715 0.0029389262410640946 0.0006327906925562325
v 0.0038471041661196376 0.0029389262410640946 0.0012499999684223444
v 0.003604196838881969 0.0029389262410640946 0.0018364301217597277
v 0.0032725424893501067 0.0029389262410640946 0.002377641236322448
v 0.0028603068582845627 0.0029389262410640946 0.0028603068582845623
v 0.0023776412363224484 0.0029389262410640946 0.0032725424893501063
v 0.001836430121759728 0.0029389262410640946 0.0036041968388819687
v 0.0012499999684223444 0.0029389262410640946 0.0038471041661196368
v 0.0006327906925562325 0.0029389262410640946 0.0039952830259017144
v 2.476900034536371e-19 0.0029389262410640946 0.004045085041855524
v -0.0006327906925562325 0.0029389262410640946 0.0039952830259017144
v -0.0012499999684223444 0.0029389262410640946 0.0038471041661196368
v -0.001836430121759728 0.0029389262410640946 0.0036041968388819687
v -0.0023776412363224484 0.0029389262410640946 0.0032725424893501063
v -0.0028603068582845627 0.0029389262410640946 0.0028603068582845623
v -0.0032725424893501067 0.0029389262410640946 0.002377641236322448
v -0.003604196838881969 0.0029389262410640946 0.0018364301217597277
v -0.0038471041661196376 0.0029389262410640946 0.0012499999684223444
v -0.003995283025901715 0.0029389262410640946 0.0006327906925562325
v -0.004045085041855525 0.0029389262410640946 4.953800069072741e-19
v -0.003995283025901715 0.0029389262410640946 -0.0006327906925562325
v -0.0038471041661196376 0.0029389262410640946 -0.0012499999684223444
v -0.003604196838881969 0.0029389262410640946 -0.0018364301217597277
v -0.0032725424893501067 0.0029389262410640946 -0.002377641236322448
v -0.0028603068582845627 0.0029389262410640946 -0.0028603068582845623
v -0.0023776412363224484 0.0029389262410640946 -0.0032725424893501063
v -0.001836430121759728 0.0029389262410640946 -0.0036041968388819687
v -0.0012499999684223444 0.0029389262410640946 -0.0038471041661196368
v -0.0006327906925562325 0.0029389262410640946 -0.0039952830259017144
v -7.430700527125576e-19 0.0029389262410640946 -0.004045085041855524
v 0.0006327906925562325 0.0029389262410640946 -0.0039952830259017144
v 0.0012499999684223444 0.0029389262410640946 -0.0038471041661196368
v 0.001836430121759728 0.0029389262410640946 -0.0036041968388819687
v 0.0023776412363224484 0.0029389262410640946 -0.0032725424893501063
v 0.0028603068582845627 0.0029389262410640946 -0.0028603068582845623
v 0.0032725424893501067 0.0029389262410640946 -0.002377641236322448
v 0.003604196838881969 0.0029389262410640946 -0.0018364301217597277
v 0.0038471041661196376 0.0029389262410640946 -0.0012499999684223444
v 0.003995283025901715 0.0029389262410640946 -0.0006327906925562325
v 0.0035355338157141993 0.003535533815714199 0.0
v 0.003492005450724951 0.003535533815714199 0.0005530793527120001
v 0.003362492285661768 0.003535533815714199 0.0010925400457948919
v 0.0031501837888278663 0.003535533815714199 0.0016050986838170305
v 0.0028603068582845627 0.003535533815714199 0.002078134674979929
v 0.0024999999368446888 0.003535533815714199 0.0024999999368446888
v 0.0020781346749799293 0.003535533815714199 0.0028603068582845623
v 0.0016050986838170307 0.003535533815714199 0.003150183788827866
v 0.001092540045794892 0.003535533815714199 0.0033624922856617676
v 0.0005530793527120002 0.003535533815714199 0.0034920054507249507
v 2.1648901623413616e-19 0.003535533815714199 0.003535533815714199
v -0.0005530793527120002 0.003535533815714199 0.0034920054507249507
v -0.001092540045794892 0.003535533815714199 0.0033624922856617676
v -0.0016050986838170307 0.003535533815714199 0.003150183788827866
v -0.0020781346749799293 0.003535533815714199 0.0028603068582845623
v -0.0024999999368446888 0.003535533815714199 0.0024999999368446888
v -0.0028603068582845627 0.003535533815714199 0.002078134674979929
v -0.0031501837888278663 0.003535533815714199 0.0016050986838170305
v -0.003362492285661768 0.003535533815714199 0.0010925400457948919
v -0.003492005450724951 0.003535533815714199 0.0005530793527120001
v -0.0035355338157141993 0.003535533815714199 4.3297803246827223e-19
v -0.003492005450724951 0.003535533815714199 -0.0005530793527120001
v -0.003362492285661768 0.003535533815714199 -0.0010925400457948919
v -0.0031501837888278663 0.003535533815714199 -0.0016050986838170305
v -0.0028603068582845627 0.003535533815714199 -0.002078134674979929
v -0.0024999999368446888 0.003535533815714199 -0.0024999999368446888
v -0.0020781346749799293 0.003535533815714199 -0.0028603068582845623
v -0.0016050986838170307 0.003535533815714199 -0.003150183788827866
v -0.001092540045794892 0.003535533815714199 -0.0033624922856617676
v -0.0005530793527120002 0.003535533815714199 -0.0034920054507249507
v -6.494670275265853e-19 0.003535533815714199 -0.003535533815714199
v 0.0005530793527120002 0.003535533815714199 -0.0034920054507249507
v 0.001092540045794892 0.003535533815714199 -0.0033624922856617676
v 0.0016050986838170307 0.003535533815714199 -0.003150183788827866
v 0.0020781346749799293 0.003535533815714199 -0.0028603068582845623
v 0.0024999999368446888 0.003535533815714199 -0.0024999999368446888
v 0.0028603068582845627 0.003535533815714199 -0.002078134674979929
v 0.0031501837888278663 0.003535533815714199 -0.0016050986838170305
v 0.003362492285661768 0.003535533815714199 -0.0010925400457948919
v 0.003492005450724951 0.003535533815714199 -0.0005530793527120001
v 0.002938926241064095 0.004045085041855524 0.0
v 0.0029027430754742524 0.004045085041855524 0.00045974935323865953
v 0.0027950848826983218 0.004045085041855524 0.0009081781157904009
v 0.0026186024957992196 0.004045085041855524 0.0013342445990150932
v 0.0023776412363224484 0.004045085041855524 0.0017274573843392709
v 0.0020781346749799293 0.004045085041855524 0.002078134674979929
v 0.001727457384339271 0.004045085041855524 0.002377641236322448
v 0.0013342445990150934 0.004045085041855524 0.0026186024957992196
v 0.000908178115790401 0.004045085041855524 0.0027950848826983213
v 0.0004597493532386596 0.004045085041855524 0.002902743075474252
v 1.7995733317487338e-19 0.004045085041855524 0.0029389262410640946
v -0.0004597493532386596 0.004045085041855524 0.002902743075474252
v -0.000908178115790401 0.004045085041855524 0.0027950848826983213
v -0.0013342445990150934 0.004045085041855524 0.0026186024957992196
v -0.001727457384339271 0.004045085041855524 0.002377641236322448
v -0.0020781346749799293 0.004045085041855524 0.002078134674979929
v -0.0023776412363224484 0.004045085041855524 0.0017274573843392709
v -0.0026186024957992196 0.004045085041855524 0.0013342445990150932
v -0.0027950848826983218 0.004045085041855524 0.0009081781157904009
v -0.0029027430754742524 0.004045085041855524 0.00045974935323865953
v -0.002938926241064095 0.004045085041855524 3.599146663497467e-19
v -0.0029027430754742524 0.004045085041855524 -0.00045974935323865953
v -0.0027950848826983218 0.004045085041855524 -0.0009081781157904009
v -0.0026186024957992196 0.004045085041855524 -0.0013342445990150932
v -0.0023776412363224484 0.004045085041855524 -0.0017274573843392709
v -0.0020781346749799293 0.004045085041855524 -0.002078134674979929
v -0.001727457384339271 0.004045085041855524 -0.002377641236322448
v -0.0013342445990150934 0.004045085041855524 -0.0026186024957992196
v -0.000908178115790401 0.004045085041855524 -0.0027950848826983213
v -0.0004597493532386596 0.004045085041855524 -0.002902743075474252
v -5.39871978348797e-19 0.004045085041855524 -0.0029389262410640946
v 0.0004597493532386596 0.004045085041855524 -0.002902743075474252
v 0.000908178115790401 0.004045085041855524 -0.0027950848826983213
v 0.0013342445990150934 0.004045085041855524 -0.0026186024957992196
v 0.001727457384339271 0.004045085041855524 -0.002377641236322448
v 0.0020781346749799293 0.004045085041855524 -0.002078134674979929
v 0.0023776412363224484 0.004045085041855524 -0.0017274573843392709
v 0.0026186024957992196 0.004045085041855524 -0.0013342445990150932
v 0.0027950848826983218 0.004045085041855524 -0.0009081781157904009
v 0.0029027430754742524 0.004045085041855524 -0.00045974935323865953
v 0.0022699525259691636 0.004455032617558947 0.0
v 0.0022420054823026067 0.004455032617558947 0.0003550987869202581
v 0.0021588530948768456 0.004455032617558947 0.0007014538587751461
v 0.0020225425209277623 0.004455032617558947 0.0010305368163126413
v 0.001836430121759728 0.004455032617558947 0.0013342445990150932
v 0.0016050986838170307 0.004455032617558947 0.0016050986838170305
v 0.0013342445990150934 0.004455032617558947 0.0018364301217597277
v 0.0010305368163126415 0.004455032617558947 0.002022542520927762
v 0.0007014538587751463 0.004455032617558947 0.002158853094876845
v 0.00035509878692025816 0.004455032617558947 0.0022420054823026063
v 1.3899450324310832e-19 0.004455032617558947 0.002269952525969163
v -0.00035509878692025816 0.004455032617558947 0.0022420054823026063
v -0.0007014538587751463 0.004455032617558947 0.002158853094876845
v -0.0010305368163126415 0.004455032617558947 0.002022542520927762
v -0.0013342445990150934 0.004455032617558947 0.0018364301217597277
v -0.0016050986838170307 0.004455032617558947 0.0016050986838170305
v -0.001836430121759728 0.004455032617558947 0.0013342445990150932
v -0.0020225425209277623 0.004455032617558947 0.0010305368163126413
v -0.0021588530948768456 0.004455032617558947 0.0007014538587751461
v -0.0022420054823026067 0.004455032617558947 0.0003550987869202581
v -0.0022699525259691636 0.004455032617558947 2.7798900648621664e-19
v -0.0022420054823026067 0.004455032617558947 -0.0003550987869202581
v -0.0021588530948768456 0.004455032617558947 -0.0007014538587751461
v -0.0020225425209277623 0.004455032617558947 -0.0010305368163126413
v -0.001836430121759728 0.004455032617558947 -0.0013342445990150932
v -0.0016050986838170307 0.004455032617558947 -0.0016050986838170305
v -0.0013342445990150934 0.004455032617558947 -0.0018364301217597277
v -0.0010305368163126415 0.004455032617558947 -0.002022542520927762
v -0.0007014538587751463 0.004455032617558947 -0.002158853094876845
v -0.00035509878692025816 0.004455032617558947 -0.0022420054823026063
v -4.16983509729325e-19 0.004455032617558947 -0.002269952525969163
v 0.00035509878692025816 0.004455032617558947 -0.0022420054823026063
v 0.0007014538587751463 0.004455032617558947 -0.002158853094876845
v 0.0010305368163126415 0.004455032617558947 -0.002022542520927762
v 0.0013342445990150934 0.004455032617558947 -0.0018364301217597277
v 0.0016050986838170307 0.004455032617558947 -0.0016050986838170305
v 0.001836430121759728 0.004455032617558947 -0.0013342445990150932
v 0.0020225425209277623 0.004455032617558947 -0.0010305368163126413
v 0.0021588530948768456 0.004455032617558947 -0.0007014538587751461
v 0.0022420054823026067 0.004455032617558947 -0.0003550987869202581
v 0.0015450849142759771 0.004755282472644896 0.0
v 0.0015260623546368985 0.004755282472644896 0.00024170452937834387
v 0.0014694631205320475 0.004755282472644896 0.0004774575112843558
v 0.001376680720837354 0.004755282472644896 0.0007014538587751461
v 0.0012499999684223444 0.004755282472644896 0.0009081781157904009
v 0.001092540045794892 0.004755282472644896 0.0010925400457948919
v 0.000908178115790401 0.004755282472644896 0.0012499999684223444
v 0.0007014538587751463 0.004755282472644896 0.0013766807208373537
v 0.0004774575112843559 0.004755282472644896 0.0014694631205320473
v 0.00024170452937834392 0.004755282472644896 0.0015260623546368983
v 9.460916265903928e-20 0.004755282472644896 0.001545084914275977
v -0.00024170452937834392 0.004755282472644896 0.0015260623546368983
v -0.0004774575112843559 0.004755282472644896 0.0014694631205320473
v -0.0007014538587751463 0.004755282472644896 0.0013766807208373537
v -0.000908178115790401 0.004755282472644896 0.0012499999684223444
v -0.001092540045794892 0.004755282472644896 0.0010925400457948919
v -0.0012499999684223444 0.004755282472644896 0.0009081781157904009
v -0.001376680720837354 0.004755282472644896 0.0007014538587751461
v -0.0014694631205320475 0.004755282472644896 0.0004774575112843558
v -0.0015260623546368985 0.004755282472644896 0.00024170452937834387
v -0.0015450849142759771 0.004755282472644896 1.8921832531807854e-19
v -0.0015260623546368985 0.004755282472644896 -0.00024170452937834387
v -0.0014694631205320475 0.004755282472644896 -0.0004774575112843558
v -0.001376680720837354 0.004755282472644896 -0.0007014538587751461
v -0.0012499999684223444 0.004755282472644896 -0.0009081781157904009
v -0.001092540045794892 0.004755282472644896 -0.0010925400457948919
v -0.000908178115790401 0.004755282472644896 -0.0012499999684223444
v -0.0007014538587751463 0.004755282472644896 -0.0013766807208373537
v -0.0004774575112843559 0.004755282472644896 -0.0014694631205320473
v -0.00024170452937834392 0.004755282472644896 -0.0015260623546368983
v -2.838274985650294e-19 0.004755282472644896 -0.001545084914275977
v 0.00024170452937834392 0.004755282472644896 -0.0015260623546368983
v 0.0004774575112843559 0.004755282472644896 -0.0014694631205320473
v 0.0007014538587751463 0.004755282472644896 -0.0013766807208373537
v 0.000908178115790401 0.004755282472644896 -0.0012499999684223444
v 0.001092540045794892 0.004755282472644896 -0.0010925400457948919
v 0.0012499999684223444 0.004755282472644896 -0.0009081781157904009
v 0.001376680720837354 0.004755282472644896 -0.0007014538587751461
v 0.0014694631205320475 0.004755282472644896 -0.0004774575112843558
v 0.0015260623546368985 0.004755282472644896 -0.00024170452937834387
v 0.0007821723263557772 0.00493844172399935 0.0
v 0.0007725424571379886 0.00493844172399935 0.00012235870052224043
v 0.000743890075964836 0.00493844172399935 0.00024170452937834387
v 0.0006969206157103443 0.00493844172399935 0.0003550987869202581
v 0.0006327906925562325 0.00493844172399935 0.00045974935323865953
v 0.0005530793527120002 0.00493844172399935 0.0005530793527120001
v 0.0004597493532386596 0.00493844172399935 0.0006327906925562325
v 0.00035509878692025816 0.00493844172399935 0.0006969206157103442
v 0.00024170452937834392 0.00493844172399935 0.0007438900759648359
v 0.00012235870052224046 0.00493844172399935 0.0007725424571379885
v 4.789423800689882e-20 0.00493844172399935 0.0007821723263557771
v -0.00012235870052224046 0.00493844172399935 0.0007725424571379885
v -0.00024170452937834392 0.00493844172399935 0.0007438900759648359
v -0.00035509878692025816 0.00493844172399935 0.0006969206157103442
v -0.0004597493532386596 0.00493844172399935 0.0006327906925562325
v -0.0005530793527120002 0.00493844172399935 0.0005530793527120001
v -0.0006327906925562325 0.00493844172399935 0.00045974935323865953
v -0.0006969206157103443 0.00493844172399935 0.0003550987869202581
v -0.000743890075964836 0.00493844172399935 0.00024170452937834387
v -0.0007725424571379886 0.00493844172399935 0.00012235870052224043
v -0.0007821723263557772 0.00493844172399935 9.578847601379763e-20
v -0.0007725424571379886 0.00493844172399935 -0.00012235870052224043
v -0.000743890075964836 0.00493844172399935 -0.00024170452937834387
v -0.0006969206157103443 0.00493844172399935 -0.0003550987869202581
v -0.0006327906925562325 0.00493844172399935 -0.00045974935323865953
v -0.0005530793527120002 0.00493844172399935 -0.0005530793527120001
v -0.0004597493532386596 0.00493844172399935 -0.0006327906925562325
v -0.00035509878692025816 0.00493844172399935 -0.0006969206157103442
v -0.00024170452937834392 0.00493844172399935 -0.0007438900759648359
v -0.00012235870052224046 0.00493844172399935 -0.0007725424571379885
v -1.4368272460860803e-19 0.00493844172399935 -0.0007821723263557771
v 0.00012235870052224046 0.00493844172399935 -0.0007725424571379885
v 0.00024170452937834392 0.00493844172399935 -0.0007438900759648359
v 0.00035509878692025816 0.00493844172399935 -0.0006969206157103442
v 0.0004597493532386596 0.00493844172399935 -0.0006327906925562325
v 0.0005530793527120002 0.00493844172399935 -0.0005530793527120001
v 0.0006327906925562325 0.00493844172399935 -0.00045974935323865953
v 0.0006969206157103443 0.00493844172399935 -0.0003550987869202581
v 0.000743890075964836 0.00493844172399935 -0.00024170452937834387
v 0.0007725424571379886 0.00493844172399935 -0.00012235870052224043
v 0.0 0.0049999998736893776 0.0
f 1 2 3
f 1 3 4
f 1 4 5
f 1 5 6
f 1 6 7
f 1 7 8
f 1 8 9
f 1 9 10
f 1 10 11
f 1 11 12
f 1 12 13
f 1 13 14
f 1 14 15
f 1 15 16
f 1 16 17
f 1 17 18
f 1 18 19
f 1 19 20
f 1 20 21
f 1 21 22
f 1 22 23
f 1 23 24
f 1 24 25
f 1 25 26
f 1 26 27
f 1 27 28
f 1 28 29
f 1 29 30
f 1 30 31
f 1 31 32
f 1 32 33
f 1 33 34
f 1 34 35
f 1 35 36
f 1 36 37
f 1 37 38
f 1 38 39
f 1 39 40
f 1 40 41
f 1 41 2
f 2 42 43 3
f 3 43 44 4
f 4 44 45 5
f 5 45 46 6
f 6 46 47 7
f 7 47 48 8
f 8 48 49 9
f 9 49 50 10
f 10 50 51 11
f 11 51 52 12
f 12 52 53 13
f 13 53 54 14
f 14 54 55 15
f 15 55 56 16
f 16 56 57 17
f 17 57 58 18
f 18 58 59 19
f 19 59 60 20
f 20 60 61 21
f 21 61 62 22
f 22 62 63 23
f 23 63 64 24
f 24 64 65 25
f 25 65 66 26
f 26 66 67 27
f 27 67 68 28
f 28 68 69 29
f 29 69 70 30
f 30 70 71 31
f 31 71 72 32
f 32 72 73 33
f 33 73 74 34
f 34 74 75 35
f 35 75 76 36
f 36 76 77 37
f 37 77 78 38
f 38 78 79 39
f 39 79 80 40
f 40 80 81 41
f 41 81 42 2
f 42 82 83 43
f 43 83 84 44
f 44 84 85 45
f 45 85 86 46
f 46 86 87 47
f 47 87 88 48
f 48 88 89 49
f 49 89 90 50
f 50 90 91 51
f 51 91 92 52
f 52 92 93 53
f 53 93 94 54
f 54 94 95 55
f 55 95 96 56
f 56 96 97 57
f 57 97 98 58
f 58 98 99 59
f 59 99 100 60
f 60 100 101 61
f 61 101 102 62
f 62 102 103 63
f 63 103 104 64
f 64 104 105 65
f 65 105 106 66
f 66 106 107 67
f 67 107 108 68
f 68 108 109 69
f 69 109 110 70
f 70 110 111 71
f 71 111 112 72
f 72 112 113 73
f 73 113 114 74
f 74 114 115 75
f 75 115 116 76
f 76 116 117 77
f 77 117 118 78
f 78 118 119 79
f 79 119 120 80
f 80 120 121 81
f 81 121 82 42
f 82 122 123 83
f 83 123 124 84
f 84 124 125 85
f 85 125 126 86
f 86 126 127 87
f 87 127 128 88
f 88 128 129 89
f 89 129 130 90
f 90 130 131 91
f 91 131 132 92
f 92 132 133 93
f 93 133 134 94
f 94 134 135 95
f 95 135 136 96
f 96 136 137 97
f 97 137 138 98
f 98 138 139 99
f 99 139 140 100
f 100 140 141 101
f 101 141 142 102
f 102 142 143 103
f 103 143 144 104
f 104 144 145 105
f 105 145 146 106
f 106 146 147 107
f 107 147 148 108
f 108 148 149 109
f 109 149 150 110
f 110 150 151 111
f 111 151 152 112
f 112 152 153 113
f 113 153 154 114
f 114 154 155 115
f 115 155 156 116
f 116 156 157 117
f 117 157 158 118
f 118 158 159 119
f 119 159 160 120
f 120 160 161 121
f 121 161 122 82
f 122 162 163 123
f 123 163 164 124
f 124 164 165 125
f 125 165 166 126
f 126 166 167 127
f 127 167 168 128
f 128 168 169 129
f 129 169 170 130
f 130 170 171 131
f 131 171 172 132
f 132 172 173 133
f 133 173 174 134
f 134 174 175 135
f 135 175 176 136
f 136 176 177 137
f 137 177 178 138
f 138 178 179 139
f 139 179 180 140
f 140 180 181 141
f 141 181 182 142
f 142 182 183 143
f 143 183 184 144
f 144 184 185 145
f 145 185 186 146
f 146 186 187 147
f 147 187 188 148
f 148 188 189 149
f 149 189 190 150
f 150 190 191 151
f 151 191 192 152
f 152 192 193 153
f 153 193 194 154
f 154 194 195 155
f 155 195 196 156
f 156 196 197 157
f 157 197 198 158
f 158 198 199 159
f 159 199 200 160
f 160 200 201 161
f 161 201 162 122
f 162 202 203 163
f 163 203 204 164
f 164 204 205 165
f 165 205 206 166
f 166 206 207 167
f 167 207 208 168
f 168 208 209 169
f 169 209 210 170
f 170 210 211 171
f 171 211 212 172
f 172 212 213 173
f 173 213 214 174
f 174 214 215 175
f 175 215 216 176
f 176 216 217 177
f 177 217 218 178
f 178 218 219 179
f 179 219 220 180
f 180 220 221 181
f 181 221 222 182
f 182 222 223 183
f 183 223 224 184
f 184 224 225 185
f 185 225 226 186
f 186 226 227 187
f 187 227 228 188
f 188 228 229 189
f 189 229 230 190
f 190 230 231 191
f 191 231 232 192
f 192 232 233 193
f 193 233 234 194
f 194 234 235 195
f 195 235 236 196
f 196 236 237 197
f 197 237 238 198
f 198 238 239 199
f 199 239 240 200
f 200 240 241 201
f 201 241 202 162
f 202 242 243 203
f 203 243 244 204
f 204 244 245 205
f 205 245 246 206
f 206 246 247 207
f 207 247 248 208
f 208 248 249 209
f 209 249 250 210
f 210 250 251 211
f 211 251 252 212
f 212 252 253 213
f 213 253 254 214
f 214 254 255 215
f 215 255 256 216
f 216 256 257 217
f 217 257 258 218
f 218 258 259 219
f 219 259 260 220
f 220 260 261 221
f 221 261 262 222
f 222 262 263 223
f 223 263 264 224
f 224 264 265 225
f 225 265 266 226
f 226 266 267 227
f 227 267 268 228
f 228 268 269 229
f 229 269 270 230
f 230 270 271 231
f 231 271 272 232
f 232 272 273 233
f 233 273 274 234
f 234 274 275 235
f 235 275 276 236
f 236 276 277 237
f 237 277 278 238
f 238 278 279 239
f 239 279 280 240
f 240 280 281 241
f 241 281 242 202
f 242 282 283 243
f 243 283 284 244
f 244 284 285 245
f 245 285 286 246
f 246 286 287 247
f 247 287 288 248
f 248 288 289 249
f 249 289 290 250
f 250 290 291 251
f 251 291 292 252
f 252 292 293 253
f 253 293 294 254
f 254 294 295 255
f 255 295 296 256
f 256 296 297 257
f 257 297 298 258
f 258 298 299 259
f 259 299 300 260
f 260 300 301 261
f 261 301 302 262
f 262 302 303 263
f 263 303 304 264
f 264 304 305 265
f 265 305 306 266
f 266 306 307 267
f 267 307 308 268
f 268 308 309 269
f 269 309 310 270
f 270 310 311 271
f 271 311 312 272
f 272 312 313 273
f 273 313 314 274
f 274 314 315 275
f 275 315 316 276
f 276 316 317 277
f 277 317 318 278
f 278 318 319 279
f 279 319 320 280
f 280 320 321 281
f 281 321 282 242
f 282 322 323 283
f 283 323 324 284
f 284 324 325 285
f 285 325 326 286
f 286 326 327 287
f 287 327 328 288
f 288 328 329 289
f 289 329 330 290
f 290 330 331 291
f 291 331 332 292
f 292 332 333 293
f 293 333 334 294
f 294 334 335 295
f 295 335 336 296
f 296 336 337 297
f 297 337 338 298
f 298 338 339 299
f 299 339 340 300
f 300 340 341 301
f 301 341 342 302
f 302 342 343 303
f 303 343 344 304
f 304 344 345 305
f 305 345 346 306
f 306 346 347 307
f 307 347 348 308
f 308 348 349 309
f 309 349 350 310
f 310 350 351 311
f 311 351 352 312
f 312 352 353 313
f 313 353 354 314
f 314 354 355 315
f 315 355 356 316
f 316 356 357 317
f 317 357 358 318
f 318 358 359 319
f 319 359 360 320
f 320 360 361 321
f 321 361 322 282
f 322 362 363 323
f 323 363 364 324
f 324 364 365 325
f 325 365 366 326
f 326 366 367 327
f 327 367 368 328
f 328 368 369 329
f 329 369 370 330
f 330 370 371 331
f 331 371 372 332
f 332 372 373 333
f 333 373 374 334
f 334 374 375 335
f 335 375 376 336
f 336 376 377 337
f 337 377 378 338
f 338 378 379 339
f 339 379 380 340
f 340 380 381 341
f 341 381 382 342
f 342 382 383 343
f 343 383 384 344
f 344 384 385 345
f 345 385 386 346
f 346 386 387 347
f 347 387 388 348
f 348 388 389 349
f 349 389 390 350
f 350 390 391 351
f 351 391 392 352
f 352 392 393 353
f 353 393 394 354
f 354 394 395 355
f 355 395 396 356
f 356 396 397 357
f 357 397 398 358
f 358 398 399 359
f 359 399 400 360
f 360 400 401 361
f 361 401 362 322
f 362 402 403 363
f 363 403 404 364
f 364 404 405 365
f 365 405 406 366
f 366 406 407 367
f 367 407 408 368
f 368 408 409 369
f 369 409 410 370
f 370 410 411 371
f 371 411 412 372
f 372 412 413 373
f 373 413 414 374
f 374 414 415 375
f 375 415 416 376
f 376 416 417 377
f 377 417 418 378
f 378 418 419 379
f 379 419 420 380
f 380 420 421 381
f 381 421 422 382
f 382 422 423 383
f 383 423 424 384
f 384 424 425 385
f 385 425 426 386
f 386 426 427 387
f 387 427 428 388
f 388 428 429 389
f 389 429 430 390
f 390 430 431 391
f 391 431 432 392
f 392 432 433 393
f 393 433 434 394
f 394 434 435 395
f 395 435 436 396
f 396 436 437 397
f 397 437 438 398
f 398 438 439 399
f 399 439 440 400
f 400 440 441 401
f 401 441 402 362
f 402 442 443 403
f 403 443 444 404
f 404 444 445 405
f 405 445 446 406
f 406 446 447 407
f 407 447 448 408
f 408 448 449 409
f 409 449 450 410
f 410 450 451 411
f 411 451 452 412
f 412 452 453 413
f 413 453 454 414
f 414 454 455 415
f 415 455 456 416
f 416 456 457 417
f 417 457 458 418
f 418 458 459 419
f 419 459 460 420
f 420 460 461 421
f 421 461 462 422
f 422 462 463 423
f 423 463 464 424
f 424 464 465 425
f 425 465 466 426
f 426 466 467 427
f 427 467 468 428
f 428 468 469 429
f 429 469 470 430
f 430 470 471 431
f 431 471 472 432
f 432 472 473 433
f 433 473 474 434
f 434 474 475 435
f 435 475 476 436
f 436 476 477 437
f 437 477 478 438
f 438 478 479 439
f 439 479 480 440
f 440 480 481 441
f 441 481 442 402
f 442 482 483 443
f 443 483 484 444
f 444 484 485 445
f 445 485 486 446
f 446 486 487 447
f 447 487 488 448
f 448 488 489 449
f 449 489 490 450
f 450 490 491 451
f 451 491 492 452
f 452 492 493 453
f 453 493 494 454
f 454 494 495 455
f 455 495 496 456
f 456 496 497 457
f 457 497 498 458
f 458 498 499 459
f 459 499 500 460
f 460 500 501 461
f 461 501 502 462
f 462 502 503 463
f 463 503 504 464
f 464 504 505 465
f 465 505 506 466
f 466 506 507 467
f 467 507 508 468
f 468 508 509 469
f 469 509 510 470
f 470 510 511 471
f 471 511 512 472
f 472 512 513 473
f 473 513 514 474
f 474 514 515 475
f 475 515 516 476
f 476 516 517 477
f 477 517 518 478
f 478 518 519 479
f 479 519 520 480
f 480 520 521 481
f 481 521 482 442
f 482 522 523 483
f 483 523 524 484
f 484 524 525 485
f 485 525 526 486
f 486 526 527 487
f 487 527 528 488
f 488 528 529 489
f 489 529 530 490
f 490 530 531 491
f 491 531 532 492
f 492 532 533 493
f 493 533 534 494
f 494 534 535 495
f 495 535 536 496
f 496 536 537 497
f 497 537 538 498
f 498 538 539 499
f 499 539 540 500
f 500 540 541 501
f 501 541 542 502
f 502 542 543 503
f 503 543 544 504
f 504 544 545 505
f 505 545 546 506
f 506 546 547 507
f 507 547 548 508
f 508 548 549 509
f 509 549 550 510
f 510 550 551 511
f 511 551 552 512
f 512 552 553 513
f 513 553 554 514
f 514 554 555 515
f 515 555 556 516
f 516 556 557 517
f 517 557 558 518
f 518 558 559 519
f 519 559 560 520
f 520 560 561 521
f 521 561 522 482
f 522 562 563 523
f 523 563 564 524
f 524 564 565 525
f 525 565 566 526
f 526 566 567 527
f 527 567 568 528
f 528 568 569 529
f 529 569 570 530
f 530 570 571 531
f 531 571 572 532
f 532 572 573 533
f 533 573 574 534
f 534 574 575 535
f 535 575 576 536
f 536 576 577 537
f 537 577 578 538
f 538 578 579 539
f 539 579 580 540
f 540 580 581 541
f 541 581 582 542
f 542 582 583 543
f 543 583 584 544
f 544 584 585 545
f 545 585 586 546
f 546 586 587 547
f 547 587 588 548
f 548 588 589 549
f 549 589 590 550
f 550 590 591 551
f 551 591 592 552
f 552 592 593 553
f 553 593 594 554
f 554 594 595 555
f 555 595 596 556
f 556 596 597 557
f 557 597 598 558
f 558 598 599 559
f 559 599 600 560
f 560 600 601 561
f 561 601 562 522
f 562 602 603 563
f 563 603 604 564
f 564 604 605 565
f 565 605 606 566
f 566 606 607 567
f 567 607 608 568
f 568 608 609 569
f 569 609 610 570
f 570 610 611 571
f 571 611 612 572
f 572 612 613 573
f 573 613 614 574
f 574 614 615 575
f 575 615 616 576
f 576 616 617 577
f 577 617 618 578
f 578 618 619 579
f 579 619 620 580
f 580 620 621 581
f 581 621 622 582
f 582 622 623 583
f 583 623 624 584
f 584 624 625 585
f 585 625 626 586
f 586 626 627 587
f 587 627 628 588
f 588 628 629 589
f 589 629 630 590
f 590 630 631 591
f 591 631 632 592
f 592 632 633 593
f 593 633 634 594
f 594 634 635 595
f 595 635 636 596
f 596 636 637 597
f 597 637 638 598
f 598 638 639 599
f 599 639 640 600
f 600 640 641 601
f 601 641 602 562
f 602 642 643 603
f 603 643 644 604
f 604 644 645 605
f 605 645 646 606
f 606 646 647 607
f 607 647 648 608
f 608 648 649 609
f 609 649 650 610
f 610 650 651 611
f 611 651 652 612
f 612 652 653 613
f 613 653 654 614
f 614 654 655 615
f 615 655 656 616
f 616 656 657 617
f 617 657 658 618
f 618 658 659 619
f 619 659 660 620
f 620 660 661 621
f 621 661 662 622
f 622 662 663 623
f 623 663 664 624
f 624 664 665 625
f 625 665 666 626
f 626 666 667 627
f 627 667 668 628
f 628 668 669 629
f 629 669 670 630
f 630 670 671 631
f 631 671 672 632
f 632 672 673 633
f 633 673 674 634
f 634 674 675 635
f 635 675 676 636
f 636 676 677 637
f 637 677 678 638
f 638 678 679 639
f 639 679 680 640
f 640 680 681 641
f 641 681 642 602
f 642 682 683 643
f 643 683 684 644
f 644 684 685 645
f 645 685 686 646
f 646 686 687 647
f 647 687 688 648
f 648 688 689 649
f 649 689 690 650
f 650 690 691 651
f 651 691 692 652
f 652 692 693 653
f 653 693 694 654
f 654 694 695 655
f 655 695 696 656
f 656 696 697 657
f 657 697 698 658
f 658 698 699 659
f 659 699 700 660
f 660 700 701 661
f 661 701 702 662
f 662 702 703 663
f 663 703 704 664
f 664 704 705 665
f 665 705 706 666
f 666 706 707 667
f 667 707 708 668
f 668 708 709 669
f 669 709 710 670
f 670 710 711 671
f 671 711 712 672
f 672 712 713 673
f 673 713 714 674
f 674 714 715 675
f 675 715 716 676
f 676 716 717 677
f 677 717 718 678
f 678 718 719 679
f 679 719 720 680
f 680 720 721 681
f 681 721 682 642
f 682 722 723 683
f 683 723 724 684
f 684 724 725 685
f 685 725 726 686
f 686 726 727 687
f 687 727 728 688
f 688 728 729 689
f 689 729 730 690
f 690 730 731 691
f 691 731 732 692
f 692 732 733 693
f 693 733 734 694
f 694 734 735 695
f 695 735 736 696
f 696 736 737 697
f 697 737 738 698
f 698 738 739 699
f 699 739 740 700
f 700 740 741 701
f 701 741 742 702
f 702 742 743 703
f 703 743 744 704
f 704 744 745 705
f 705 745 746 706
f 706 746 747 707
f 707 747 748 708
f 708 748 749 709
f 709 749 750 710
f 710 750 751 711
f 711 751 752 712
f 712 752 753 713
f 713 753 754 714
f 714 754 755 715
f 715 755 756 716
f 716 756 757 717
f 717 757 758 718
f 718 758 759 719
f 719 759 760 720
f 720 760 761 721
f 721 761 722 682
f 762 723 722
f 762 724 723
f 762 725 724
f 762 726 725
f 762 727 726
f 762 728 727
f 762 729 728
f 762 730 729
f 762 731 730
f 762 732 731
f 762 733 732
f 762 734 733
f 762 735 734
f 762 736 735
f 762 737 736
f 762 738 737
f 762 739 738
f 762 740 739
f 762 741 740
f 762 742 741
f 762 743 742
f 762 744 743
f 762 745 744
f 762 746 745
f 762 747 746
f 762 748 747
f 762 749 748
f 762 750 749
f 762 751 750
f 762 752 751
f 762 753 752
f 762 754 753
f 762 755 754
f 762 756 755
f 762 757 756
f 762 758 757
f 762 759 758
f 762 760 759
f 762 761 760
f 762 722 761
