v 0.025000001187436293 0.0 -0.0049999998736893776
v 0.024519633504097593 0.004877253287229599 -0.0049999998736893776
v 0.023096993589724068 0.009567077137456192 -0.0049999998736893776
v 0.020786749873426002 0.013889243785619176 -0.0049999998736893776
v 0.017677683716231803 0.017677657013349668 -0.0049999998736893776
v 0.013889277164221841 0.02078672698524131 -0.0049999998736893776
v 0.00956711337708194 0.02309697833093427 -0.0049999998736893776
v 0.00487729191104125 0.02451962587470269 -0.0049999998736893776
v 3.926990943985554e-08 0.025000001187436283 -0.0049999998736893776
v -0.004877215140255133 0.024519641133492476 -0.0049999998736893776
v -0.009567040897830451 0.023097008848513845 -0.0049999998736893776
v -0.013889211360690884 0.02078677085426195 -0.0049999998736893776
v -0.017677628403118824 0.017677712326462647 -0.0049999998736893776
v -0.020786706004405364 0.013889309589150134 -0.0049999998736893776
v -0.023096963072144493 0.009567149616707682 -0.0049999998736893776
v -0.024519618245307805 0.004877330534852897 -0.0049999998736893776
v -0.025000001187436293 7.853981887971104e-08 -0.0049999998736893776
v -0.02451964876288738 -0.004877176516443482 -0.0049999998736893776
v -0.023097024107303642 -0.009567004658204703 -0.0049999998736893776
v -0.02078679374244664 -0.01388917893576258 -0.0049999998736893776
v -0.01767773902934478 -0.01767760170023669 -0.0049999998736893776
v -0.013889342014078437 -0.020786683116220672 -0.0049999998736893776
v -0.00956718585633343 -0.023096947813354696 -0.0049999998736893776
v -0.004877369158664548 -0.0245196106159129 -0.0049999998736893776
v -1.1780972831956662e-07 -0.025000001187436283 -0.0049999998736893776
v 0.004877137892631835 -0.024519656392282263 -0.0049999998736893776
v 0.009566968418578962 -0.023097037458744696 -0.0049999998736893776
v 0.013889146510834288 -0.020786814723282587 -0.0049999998736893776
v 0.017677573090005845 -0.017677767639575626 -0.0049999998736893776
v 0.020786662135384725 -0.01388937443900673 -0.0049999998736893776
v 0.02309693255456492 -0.009567222095959171 -0.0049999998736893776
v 0.024519602986518018 -0.004877407305639014 -0.0049999998736893776
v 0.01875000661262339 0.0 -0.002500002416397849
v 0.018389731326956545 0.003657941276724447 -0.002500002416397849
v 0.01732275091433922 0.007175310475696639 -0.002500002416397849
v 0.01559006765027849 0.010416936415493239 -0.002500002416397849
v 0.013258268032382841 0.013258247051546879 -0.002500002416397849
v 0.010416961211026648 0.015590050484139972 -0.002500002416397849
v 0.007175337655415951 0.017322739470246873 -0.002500002416397849
v 0.00365797012537389 0.018389725604910367 -0.002500002416397849
v 2.9452442993828594e-08 0.018750006612623382 -0.002500002416397849
v -0.003657912428075007 0.018389737049002708 -0.002500002416397849
v -0.007175283295977334 0.017322762358431554 -0.002500002416397849
v -0.010416912573634201 0.015590083862742632 -0.002500002416397849
v -0.013258226070710926 0.013258288059544432 -0.002500002416397849
v -0.01559003427167583 0.010416986006560047 -0.002500002416397849
v -0.01732272802615454 0.007175364835135256 -0.002500002416397849
v -0.018389719882864204 0.00365799897402333 -0.002500002416397849
v -0.01875000661262339 5.890488598765716e-08 -0.002500002416397849
v -0.018389742771048885 -0.0036578835794255637 -0.002500002416397849
v -0.0173227738025239 -0.007175255639420841 -0.002500002416397849
v -0.015590100075206788 -0.010416887778100792 -0.002500002416397849
v -0.013258309040380395 -0.013258205089874964 -0.002500002416397849
v -0.010417009848419095 -0.015590018059211674 -0.002500002416397849
v -0.007175392014854568 -0.017322716582062192 -0.002500002416397849
v -0.0036580280610913635 -0.018389714160818027 -0.002500002416397849
v -8.835732716249629e-08 -0.018750006612623382 -0.002500002416397849
v 0.003657854730776124 -0.01838974849309505 -0.002500002416397849
v 0.007175228459701536 -0.017322785246616235 -0.002500002416397849
v 0.010416862982567393 -0.01559011628767093 -0.002500002416397849
v 0.013258184109039011 -0.013258330021216347 -0.002500002416397849
v 0.015590001846747532 -0.010417034643952494 -0.002500002416397849
v 0.01732270513796986 -0.007175419194573873 -0.002500002416397849
v 0.018389708438771864 -0.0036580569097408033 -0.002500002416397849
v 0.012500012991484849 0.0 -4.9999997473787565e-09
v 0.012259829149815498 0.0024386292662192943 -4.9999997473787565e-09
v 0.011548508238954374 0.004783543337099905 -4.9999997473787565e-09
v 0.01039338542713098 0.006944629045367301 -4.9999997473787565e-09
v 0.008838851394859518 0.00883883708974409 -4.9999997473787565e-09
v 0.0069446452578314525 0.010393373983038634 -4.9999997473787565e-09
v 0.004783561456912779 0.011548500609559476 -4.9999997473787565e-09
v 0.0024386483397065293 0.012259825335118046 -4.9999997473787565e-09
v 1.963497472881216e-08 0.012500012991484843 -4.9999997473787565e-09
v -0.0024386099543134707 0.01225983296451294 -4.9999997473787565e-09
v -0.004783525217287034 0.011548515868349263 -4.9999997473787565e-09
v -0.006944612832903155 0.010393395917548953 -4.9999997473787565e-09
v -0.008838822784628667 0.008838864746300579 -4.9999997473787565e-09
v -0.01039336349262066 0.00694466194713278 -4.9999997473787565e-09
v -0.011548492980164587 0.0047835795767256495 -4.9999997473787565e-09
v -0.012259821520420605 0.002438667651612353 -4.9999997473787565e-09
v -0.012500012991484849 3.92699494576243e-08 -4.9999997473787565e-09
v -0.012259836779210392 -0.0024385906424076453 -4.9999997473787565e-09
v -0.011548523497744162 -0.00478350709747416 -4.9999997473787565e-09
v -0.010393407361641299 -0.006944596620439003 -4.9999997473787565e-09
v -0.008838879051416008 -0.0088388094331876 -4.9999997473787565e-09
v -0.006944678159596931 -0.010393352048528315 -4.9999997473787565e-09
v -0.004783597696538524 -0.011548485350769688 -4.9999997473787565e-09
v -0.0024386869635181782 -0.012259817705723153 -4.9999997473787565e-09
v -5.890492236744699e-08 -0.012500012991484843 -4.9999997473787565e-09
v 0.0024385713305018217 -0.012259840593907834 -4.9999997473787565e-09
v 0.004783488977661289 -0.01154853112713905 -4.9999997473787565e-09
v 0.006944579931137676 -0.010393417852059272 -4.9999997473787565e-09
v 0.008838795128072178 -0.008838892402857068 -4.9999997473787565e-09
v 0.010393341558110341 -0.006944694372061078 -4.9999997473787565e-09
v 0.0115484777213748 -0.004783615816351394 -4.9999997473787565e-09
v 0.012259813891025711 -0.002438706275424002 -4.9999997473787565e-09
v 0.0062500188935091265 0.0 0.0024999924981852087
v 0.006129926972674451 0.0012193170172955514 0.0024999924981852087
v 0.005774265563569528 0.002391776436921761 0.0024999924981852087
v 0.005196702727146288 0.003472321436822773 0.0024999924981852087
v 0.0044194342804990145 0.004419427604778481 0.0024999924981852087
v 0.0034723295430548486 0.005196697481937296 0.0024999924981852087
v 0.002391785496828198 0.005774261748872078 0.0024999924981852087
v 0.001219326673248464 0.006129925065325725 0.0024999924981852087
v 9.81750737329047e-09 0.006250018893509124 0.0024999924981852087
v -0.0012193073613426396 0.006129928880023172 0.0024999924981852087
v -0.0023917673770153256 0.005774269378266972 0.0024999924981852087
v -0.0034723133305906997 0.005196708449192455 0.0024999924981852087
v -0.00441942045222077 0.0044194414330567255 0.0024999924981852087
v -0.005196692236728309 0.003472337887705512 0.0024999924981852087
v -0.005774257934174634 0.0023917945567346333 0.0024999924981852087
v -0.0061299231579770045 0.001219336329201376 0.0024999924981852087
v -0.0062500188935091265 1.963501474658093e-08 0.0024999924981852087
v -0.006129930787371898 -0.0012192978245990221 0.0024999924981852087
v -0.005774273192964421 -0.0023917583171088885 0.0024999924981852087
v -0.005196713694401447 -0.003472305224358624 0.0024999924981852087
v -0.004419448108777259 -0.004419413299663055 0.0024999924981852087
v -0.003472345993937588 -0.005196686514682136 0.0024999924981852087
v -0.0023918036166410703 -0.005774254119477185 0.0024999924981852087
v -0.0012193458659449934 -0.0061299212506282785 0.0024999924981852087
v -2.9452521210376662e-08 -0.006250018893509124 0.0024999924981852087
v 0.0012192881686461103 -0.006129932694720619 0.0024999924981852087
v 0.0023917492572024532 -0.0057742770076618655 0.0024999924981852087
v 0.0034722968797079603 -0.005196719416447615 0.0024999924981852087
v 0.004419406623942525 -0.00441945526133497 0.0024999924981852087
v 0.005196681269473149 -0.003472354100169661 0.0024999924981852087
v 0.005774250781616921 -0.0023918126765475056 0.0024999924981852087
v 0.006129919343279558 -0.0012193555218979052 0.0024999924981852087
v 2.500000055588314e-08 0.0 0.0049999899554767375
v 2.4519634535420977e-08 4.877253336153141e-09 0.0049999899554767375
v 2.3096993760388937e-08 9.567077085767787e-09 0.0049999899554767375
v 2.0786749778896756e-08 1.3889244405938248e-08 0.0049999899554767375
v 1.7677683829969577e-08 1.767765654512722e-08 0.0049999899554767375
v 1.3889277147749074e-08 2.0786727951022866e-08 0.0049999899554767375
v 9.567113465557591e-09 2.3096977389483518e-08 0.0049999899554767375
v 4.877291989679804e-09 2.4519627259463007e-08 0.0049999899554767375
v 3.926990863605403e-14 2.5000000555883132e-08 0.0049999899554767375
v -4.877215137373854e-09 2.4519641811378927e-08 0.0049999899554767375
v -9.567040705977993e-09 2.3097008312304847e-08 0.0049999899554767375
v -1.3889211664127436e-08 2.0786771606770625e-08 0.0049999899554767375
v -1.767762926028488e-08 1.767771111481192e-08 0.0049999899554767375
v -2.0786706123148997e-08 1.3889309889559886e-08 0.0049999899554767375
v -2.3096962837567608e-08 9.567149845347385e-09 0.0049999899554767375
v -2.4519618164515568e-08 4.877330643206463e-09 0.0049999899554767375
v -2.500000055588314e-08 7.853981727210803e-14 0.0049999899554767375
v -2.4519649087336897e-08 -4.8771764838471905e-09 0.0049999899554767375
v -2.3097022864220776e-08 -9.56700432618819e-09 0.0049999899554767375
v -2.0786793434644514e-08 -1.388917892231661e-08 0.0049999899554767375
v -1.7677740218643765e-08 -1.7677600156453033e-08 0.0049999899554767375
v -1.3889342631370712e-08 -2.0786684295275108e-08 0.0049999899554767375
v -9.567186225137189e-09 -2.309694828565168e-08 0.0049999899554767375
v -4.8773688419857545e-09 -2.4519610888557598e-08 0.0049999899554767375
v -1.178097259081621e-13 -2.5000000555883132e-08 0.0049999899554767375
v 4.877137830320532e-09 -2.4519656363294847e-08 0.0049999899554767375
v 9.566967946398396e-09 -2.3097037416136686e-08 0.0049999899554767375
v 1.3889146180505798e-08 -2.0786815262518384e-08 0.0049999899554767375
v 1.767757287161069e-08 -1.7677767503486108e-08 0.0049999899554767375
v 2.0786662467401238e-08 -1.3889374463686779e-08 0.0049999899554767375
v 2.309693373373577e-08 -9.567222604926983e-09 0.0049999899554767375
v 2.4519603612599648e-08 -4.877407495512413e-09 0.0049999899554767375
v 0.0 0.0 -0.0049999998736893776
v 0.025000001187436293 0.0 -0.0049999998736893776
v 0.024519633504097593 0.004877253287229599 -0.0049999998736893776
v 0.023096993589724068 0.009567077137456192 -0.0049999998736893776
v 0.020786749873426002 0.013889243785619176 -0.0049999998736893776
v 0.017677683716231803 0.017677657013349668 -0.0049999998736893776
v 0.013889277164221841 0.02078672698524131 -0.0049999998736893776
v 0.00956711337708194 0.02309697833093427 -0.0049999998736893776
v 0.00487729191104125 0.02451962587470269 -0.0049999998736893776
v 3.926990943985554e-08 0.025000001187436283 -0.0049999998736893776
v -0.004877215140255133 0.024519641133492476 -0.0049999998736893776
v -0.009567040897830451 0.023097008848513845 -0.0049999998736893776
v -0.013889211360690884 0.02078677085426195 -0.0049999998736893776
v -0.017677628403118824 0.017677712326462647 -0.0049999998736893776
v -0.020786706004405364 0.013889309589150134 -0.0049999998736893776
v -0.023096963072144493 0.009567149616707682 -0.0049999998736893776
v -0.024519618245307805 0.004877330534852897 -0.0049999998736893776
v -0.025000001187436293 7.853981887971104e-08 -0.0049999998736893776
v -0.02451964876288738 -0.004877176516443482 -0.0049999998736893776
v -0.023097024107303642 -0.009567004658204703 -0.0049999998736893776
v -0.02078679374244664 -0.01388917893576258 -0.0049999998736893776
v -0.01767773902934478 -0.01767760170023669 -0.0049999998736893776
v -0.013889342014078437 -0.020786683116220672 -0.0049999998736893776
v -0.00956718585633343 -0.023096947813354696 -0.0049999998736893776
v -0.004877369158664548 -0.0245196106159129 -0.0049999998736893776
v -1.1780972831956662e-07 -0.025000001187436283 -0.0049999998736893776
v 0.004877137892631835 -0.024519656392282263 -0.0049999998736893776
v 0.009566968418578962 -0.023097037458744696 -0.0049999998736893776
v 0.013889146510834288 -0.020786814723282587 -0.0049999998736893776
v 0.017677573090005845 -0.017677767639575626 -0.0049999998736893776
v 0.020786662135384725 -0.01388937443900673 -0.0049999998736893776
v 0.02309693255456492 -0.009567222095959171 -0.0049999998736893776
v 0.024519602986518018 -0.004877407305639014 -0.0049999998736893776
f 1 2 34 33
f 2 3 35 34
f 3 4 36 35
f 4 5 37 36
f 5 6 38 37
f 6 7 39 38
f 7 8 40 39
f 8 9 41 40
f 9 10 42 41
f 10 11 43 42
f 11 12 44 43
f 12 13 45 44
f 13 14 46 45
f 14 15 47 46
f 15 16 48 47
f 16 17 49 48
f 17 18 50 49
f 18 19 51 50
f 19 20 52 51
f 20 21 53 52
f 21 22 54 53
f 22 23 55 54
f 23 24 56 55
f 24 25 57 56
f 25 26 58 57
f 26 27 59 58
f 27 28 60 59
f 28 29 61 60
f 29 30 62 61
f 30 31 63 62
f 31 32 64 63
f 32 1 33 64
f 33 34 66 65
f 34 35 67 66
f 35 36 68 67
f 36 37 69 68
f 37 38 70 69
f 38 39 71 70
f 39 40 72 71
f 40 41 73 72
f 41 42 74 73
f 42 43 75 74
f 43 44 76 75
f 44 45 77 76
f 45 46 78 77
f 46 47 79 78
f 47 48 80 79
f 48 49 81 80
f 49 50 82 81
f 50 51 83 82
f 51 52 84 83
f 52 53 85 84
f 53 54 86 85
f 54 55 87 86
f 55 56 88 87
f 56 57 89 88
f 57 58 90 89
f 58 59 91 90
f 59 60 92 91
f 60 61 93 92
f 61 62 94 93
f 62 63 95 94
f 63 64 96 95
f 64 33 65 96
f 65 66 98 97
f 66 67 99 98
f 67 68 100 99
f 68 69 101 100
f 69 70 102 101
f 70 71 103 102
f 71 72 104 103
f 72 73 105 104
f 73 74 106 105
f 74 75 107 106
f 75 76 108 107
f 76 77 109 108
f 77 78 110 109
f 78 79 111 110
f 79 80 112 111
f 80 81 113 112
f 81 82 114 113
f 82 83 115 114
f 83 84 116 115
f 84 85 117 116
f 85 86 118 117
f 86 87 119 118
f 87 88 120 119
f 88 89 121 120
f 89 90 122 121
f 90 91 123 122
f 91 92 124 123
f 92 93 125 124
f 93 94 126 125
f 94 95 127 126
f 95 96 128 127
f 96 65 97 128
f 97 98 130 129
f 98 99 131 130
f 99 100 132 131
f 100 101 133 132
f 101 102 134 133
f 102 103 135 134
f 103 104 136 135
f 104 105 137 136
f 105 106 138 137
f 106 107 139 138
f 107 108 140 139
f 108 109 141 140
f 109 110 142 141
f 110 111 143 142
f 111 112 144 143
f 112 113 145 144
f 113 114 146 145
f 114 115 147 146
f 115 116 148 147
f 116 117 149 148
f 117 118 150 149
f 118 119 151 150
f 119 120 152 151
f 120 121 153 152
f 121 122 154 153
f 122 123 155 154
f 123 124 156 155
f 124 125 157 156
f 125 126 158 157
f 126 127 159 158
f 127 128 160 159
f 128 97 129 160
f 161 163 162
f 161 164 163
f 161 165 164
f 161 166 165
f 161 167 166
f 161 168 167
f 161 169 168
f 161 170 169
f 161 171 170
f 161 172 171
f 161 173 172
f 161 174 173
f 161 175 174
f 161 176 175
f 161 177 176
f 161 178 177
f 161 179 178
f 161 180 179
f 161 181 180
f 161 182 181
f 161 183 182
f 161 184 183
f 161 185 184
f 161 186 185
f 161 187 186
f 161 188 187
f 161 189 188
f 161 190 189
f 161 191 190
f 161 192 191
f 161 193 192
f 161 162 193
